<svg id="Слой_1" data-name="Слой 1" xmlns="http://www.w3.org/2000/svg" viewBox="0 0 2164.59 470.81"><defs><style>.cls-1{fill:#fff;}.cls-2{fill:#1c75bc;}</style></defs><path class="cls-1" d="M1820.3,1282.77a5.35,5.35,0,0,1-4.61,5.3,486.4,486.4,0,0,1-65.87,4.7q-33.66,0-55.22-21.94T1673,1212.52h0a5.34,5.34,0,0,0-5.35-5.35h-10.43q-55.21,0-80.2-25.42t-25-81.58V929q0-56.18,25-81.58t80.2-25.42h131.49q55.23,0,80.21,25.42t25,81.58v171.21q0,56.17-25,81.58t-80.21,25.42H1767.8a5.34,5.34,0,0,0-5.35,5.35h0a18.29,18.29,0,0,0,5.26,13.37,17.68,17.68,0,0,0,13.14,5.35H1815a5.35,5.35,0,0,1,5.35,5.35Zm-21-353.81q0-32.1-31.55-32.1h-89.42q-31.56,0-31.55,32.1v171.21q0,32.1,31.55,32.1h89.42q31.55,0,31.55-32.1Z" transform="translate(-797.03 -821.96)"/><path class="cls-1" d="M2200,827.31h61.05a16.82,16.82,0,0,1,16.81,16.82v256q0,56.17-25,81.58t-80.21,25.42h-121q-55.23,0-80.21-25.42t-25-81.58v-256a16.82,16.82,0,0,1,16.81-16.82h61.05a16.82,16.82,0,0,1,16.81,16.82v256q0,32.1,31.56,32.1h78.89q31.56,0,31.56-32.1v-256A16.82,16.82,0,0,1,2200,827.31Z" transform="translate(-797.03 -821.96)"/><path class="cls-1" d="M2617.46,1201.82h-261a15.45,15.45,0,0,1-15.44-15.45V842.76a15.45,15.45,0,0,1,15.44-15.45h261a15.45,15.45,0,0,1,15.44,15.45v44a15.44,15.44,0,0,1-15.44,15.44H2451.11a15.45,15.45,0,0,0-15.44,15.45V959a15.44,15.44,0,0,0,15.44,15.44h124.27a15.45,15.45,0,0,1,15.45,15.44v44a15.45,15.45,0,0,1-15.45,15.44H2451.11a15.44,15.44,0,0,0-15.44,15.44v46.69a15.45,15.45,0,0,0,15.44,15.45h166.35a15.44,15.44,0,0,1,15.44,15.44v44A15.45,15.45,0,0,1,2617.46,1201.82Z" transform="translate(-797.03 -821.96)"/><path class="cls-1" d="M2784,1126.92h163.23a14.37,14.37,0,0,1,14.37,14.37v46.16a14.37,14.37,0,0,1-14.37,14.37h-257.9a14.37,14.37,0,0,1-14.37-14.37V841.68a14.37,14.37,0,0,1,14.37-14.37h65.93a14.38,14.38,0,0,1,14.37,14.37v270.87A14.37,14.37,0,0,0,2784,1126.92Z" transform="translate(-797.03 -821.96)"/><path class="cls-2" d="M1430.64,1201.82H1169.2c-9.94,0-18.21-9.9-16.07-19.23l79.56-345.91a12.06,12.06,0,0,1,12.13-9.36h261.45c9.94,0,18.21,9.89,16.06,19.23l-10.65,46.3a12.06,12.06,0,0,1-12.13,9.37H1322.27a12,12,0,0,0-12.13,9.36l-10,43.63c-2.14,9.33,6.13,19.23,16.07,19.23h114.18c9.94,0,18.21,9.9,16.07,19.23L1435.76,1040a12.05,12.05,0,0,1-12.13,9.36h-135.2a12.06,12.06,0,0,0-12.13,9.37l-11.27,49c-2.14,9.33,6.13,19.23,16.07,19.23h156.26c9.94,0,18.21,9.9,16.06,19.23l-10.65,46.3A12.06,12.06,0,0,1,1430.64,1201.82Z" transform="translate(-797.03 -821.96)"/><path class="cls-1" d="M801.76,1144.59a19.25,19.25,0,0,1,20.3-19.23q127.49,6.9,174.83,6.91,12.09,0,19.2-7.23t7.1-19.52v-28.9a19.25,19.25,0,0,0-19.26-19.25H902.22Q847,1057.37,822,1032t-25-81.58V934.31q0-56.17,25-81.58t80.21-25.42h165.35a19.26,19.26,0,0,1,19.26,19.26V883a19.25,19.25,0,0,1-19.26,19.25H923.26q-31.56,0-31.56,32.1V945q0,32.1,31.56,32.1h94.67q51.54,0,75.74,24.61t24.19,77v26.75q0,52.44-24.19,77t-75.74,24.61q-26.82,0-56.8-1.07L912.74,1204q-45.32-2.26-93.25-6a19.26,19.26,0,0,1-17.73-19.2Z" transform="translate(-797.03 -821.96)"/></svg>