<svg id="Слой_1" data-name="Слой 1" xmlns="http://www.w3.org/2000/svg" viewBox="0 0 2164.6 470.81"><defs><style>.cls-1{fill:#231f20;}.cls-2{fill:#1c75bc;}</style></defs><path class="cls-1" d="M1820.3,1287.42a491.57,491.57,0,0,1-70.48,5.35q-33.66,0-55.22-21.94T1673,1212.52v-5.35h-15.78q-55.21,0-80.2-25.42t-25-81.58V929q0-56.18,25-81.58t80.2-25.42h131.49q55.23,0,80.21,25.42t25,81.58v171.21q0,56.17-25,81.58t-80.21,25.42h-26.29v5.35a18.29,18.29,0,0,0,5.26,13.37,17.7,17.7,0,0,0,13.15,5.35h39.44Zm-21-358.46q0-32.1-31.55-32.1h-89.42q-31.56,0-31.55,32.1v171.21q0,32.1,31.55,32.1h89.42q31.55,0,31.55-32.1Z" transform="translate(-797.03 -821.96)"/><path class="cls-1" d="M2198.17,827.31h64.75a15,15,0,0,1,15,15v257.89q0,56.17-25,81.58t-80.21,25.42h-121q-55.23,0-80.21-25.42t-25-81.58V842.28a15,15,0,0,1,15-15h64.75a15,15,0,0,1,15,15v257.89q0,32.1,31.56,32.1h78.89q31.56,0,31.56-32.1V842.28A15,15,0,0,1,2198.17,827.31Z" transform="translate(-797.03 -821.96)"/><path class="cls-1" d="M2618.23,1201.82H2355.68a14.68,14.68,0,0,1-14.68-14.68V842a14.68,14.68,0,0,1,14.68-14.68h262.55A14.68,14.68,0,0,1,2632.91,842v45.55a14.67,14.67,0,0,1-14.68,14.67H2450.35a14.68,14.68,0,0,0-14.68,14.68v42.87a14.68,14.68,0,0,0,14.68,14.68h125.8a14.68,14.68,0,0,1,14.68,14.68v45.54a14.68,14.68,0,0,1-14.68,14.68h-125.8a14.68,14.68,0,0,0-14.68,14.68v48.22a14.68,14.68,0,0,0,14.68,14.68h167.88a14.67,14.67,0,0,1,14.68,14.67v45.55A14.68,14.68,0,0,1,2618.23,1201.82Z" transform="translate(-797.03 -821.96)"/><path class="cls-1" d="M2785,1126.92h161.38a15.3,15.3,0,0,1,15.3,15.3v44.3a15.3,15.3,0,0,1-15.3,15.3h-256a15.3,15.3,0,0,1-15.3-15.3V842.61a15.3,15.3,0,0,1,15.3-15.3h64.07a15.3,15.3,0,0,1,15.3,15.3v269A15.3,15.3,0,0,0,2785,1126.92Z" transform="translate(-797.03 -821.96)"/><path class="cls-2" d="M1430.64,1201.82H1169.2c-9.94,0-18.21-9.9-16.07-19.23l79.56-345.91a12.06,12.06,0,0,1,12.13-9.36h261.45c9.94,0,18.21,9.89,16.06,19.23l-10.65,46.3a12.06,12.06,0,0,1-12.13,9.37H1322.27a12,12,0,0,0-12.13,9.36l-10,43.63c-2.14,9.33,6.13,19.23,16.07,19.23h114.18c9.94,0,18.21,9.9,16.07,19.23L1435.76,1040a12.05,12.05,0,0,1-12.13,9.36h-135.2a12.06,12.06,0,0,0-12.13,9.37l-11.27,49c-2.14,9.33,6.13,19.23,16.07,19.23h156.26c9.94,0,18.21,9.9,16.06,19.23l-10.65,46.3A12.06,12.06,0,0,1,1430.64,1201.82Z" transform="translate(-797.03 -821.96)"/><path class="cls-1" d="M801.76,1139.7a14.63,14.63,0,0,1,15.43-14.61q131.46,7.19,179.7,7.18,12.11,0,19.2-7.23t7.1-19.52V1072a14.63,14.63,0,0,0-14.63-14.63H902.22Q847,1057.37,822,1032t-25-81.58V934.31q0-56.17,25-81.58t80.21-25.42h170a14.63,14.63,0,0,1,14.63,14.63v45.65a14.63,14.63,0,0,1-14.63,14.62H923.26q-31.56,0-31.56,32.1V945q0,32.1,31.56,32.1h94.67q51.54,0,75.74,24.61t24.19,77v26.75q0,52.44-24.19,77t-75.74,24.61q-26.82,0-56.8-1.07L912.74,1204q-47.32-2.37-97.51-6.39A14.64,14.64,0,0,1,801.76,1183Z" transform="translate(-797.03 -821.96)"/></svg>